<svg height="24" viewBox="0 0 24 24" width="24" xmlns="http://www.w3.org/2000/svg" xmlns:xlink="http://www.w3.org/1999/xlink"><defs><path id="a" d="m12 15c-3.63222104 0-7 1.8936692-7 4h14c0-2.1063308-3.367779-4-7-4zm0-2c3.7546875 0 9 2.01 9 6 0 1.1045695-.8954305 2-2 2h-14c-1.1045695 0-2-.8954305-2-2 0-3.99 5.2453125-6 9-6zm0-4c1.1054305 0 2-.8945695 2-2s-.8945695-2-2-2-2 .8945695-2 2 .8945695 2 2 2zm0 2c-2.21 0-4-1.79-4-4s1.79-4 4-4 4 1.79 4 4-1.79 4-4 4z"/><mask id="b" fill="#fff"><use fill="#fff" fill-rule="evenodd" xlink:href="#a"/></mask></defs><g fill="none" fill-rule="evenodd"><use fill="#0c0c0c" fill-rule="nonzero" xlink:href="#a"/><g fill="#404040" mask="url(#b)"><path d="m0 0h24v24h-24z"/></g></g></svg>