<svg height="24" viewBox="0 0 24 24" width="24" xmlns="http://www.w3.org/2000/svg" xmlns:xlink="http://www.w3.org/1999/xlink"><defs><path id="a" d="m6.21966991 14.1857425c.29289322-.3056277.76776696-.3056277 1.06066018 0l4.71966991 4.924873 4.7196699-4.924873c.2928932-.3056277.767767-.3056277 1.0606602 0s.2928932.8011481 0 1.1067759l-5.25 5.4782608c-.2928932.3056277-.767767.3056277-1.0606602 0l-5.24999999-5.4782608c-.29289321-.3056278-.29289321-.8011482 0-1.1067759zm6.31066019-10.95652172 5.25 5.47826087c.2928932.30562771.2928932.80114812 0 1.10677583-.2928932.30562772-.767767.30562772-1.0606602 0l-4.7196699-4.92487295-4.71966991 4.92487295c-.29289322.30562772-.76776696.30562772-1.06066018 0-.29289321-.30562771-.29289321-.80114812 0-1.10677583l5.24999999-5.47826087c.2928932-.30562771.767767-.30562771 1.0606602 0z"/><mask id="b" fill="#fff"><use fill="#fff" fill-rule="evenodd" xlink:href="#a"/></mask></defs><g fill="none" fill-rule="evenodd"><use fill="#0c0c0c" fill-rule="nonzero" xlink:href="#a"/><g fill="#404040" mask="url(#b)"><path d="m0 0h24v24h-24z"/></g></g></svg>