<svg height="24" viewBox="0 0 24 24" width="24" xmlns="http://www.w3.org/2000/svg" xmlns:xlink="http://www.w3.org/1999/xlink">
    <defs>
        <path id="a"
              d="m.28930593 10.1894374 3.13096194 3.1629748c.90450468.9137529 2.37849369.9212501 3.29224659.0167454.07412992-.0733796.14324437-.1516584.20687613-.2343072l8.87297491-11.52475421c.3369195-.43761135.2552927-1.06549266-.1823187-1.40241217-.4376113-.33691951-1.0654926-.25529264-1.4024122.18231871l-8.87297488 11.52475427c-.15788932.1604511-.36556474.1593948-.49300355.030653l-3.13096194-3.16297484c-.38853294-.39250554-1.02168973-.39572597-1.41419527-.00719303-.39250554.38853293-.39572597 1.02168972-.00719303 1.41419527z"/>
        <mask id="b" fill="#fff">
            <use fill="#fff" fill-rule="evenodd" xlink:href="#a"/>
        </mask>
    </defs>
    <g fill="none" fill-rule="evenodd" transform="translate(4 5)">
        <use fill="#0c0c0c" fill-rule="nonzero" xlink:href="#a"/>
        <g mask="url(#b)">
            <path d="m0 0h24v24h-24z" fill="#404040" transform="translate(-4 -5)"/>
        </g>
    </g>
</svg>
