<svg height="24" viewBox="0 0 24 24" width="24" xmlns="http://www.w3.org/2000/svg" xmlns:xlink="http://www.w3.org/1999/xlink"><defs><path id="a" d="m18.964604 9.99999937c.5522791-.00248429 1.0020125.44320373 1.0045076.99548283.0197312 4.3673787.0303757 6.725945.0319334 7.075699l.0002003.0456609c0 2.1446089-1.738549 3.8831573-3.8831579 3.8831573h-8.26702688c-2.14454502-.0166655-3.86962542-1.7685796-3.85319302-3.9131246l.05487055-7.0945921c.00426213-.5522683.45541918-.99651505 1.00768749-.99228333.5522683.00429253.99651508.45544963.99225296 1.00771793l-.05475245 7.094592c-.00802626 1.0400084.82856058 1.8896084 1.88310181 1.8976901h8.23705954c1.0400394 0 1.8831579-.8431179 1.8831387-1.8916651l-.0320941-7.1038165c-.0024951-.5522791.4431928-1.0020125.995472-1.00451843zm-9.464604.00000063c.5522847 0 1 .4477153 1 1v6c0 .5522847-.4477153 1-1 1-.55228475 0-1-.4477153-1-1v-6c0-.5522847.44771525-1 1-1zm5 0c.5522847 0 1 .4477153 1 1v6c0 .5522847-.4477153 1-1 1s-1-.4477153-1-1v-6c0-.5522847.4477153-1 1-1zm-1.9945169-8c1.9274738 0 3.49 1.56252622 3.49 3.49-.0001011.03254048-.0001011.03254048-.0006068.06507719l-.0088763.44492281h4.014c.5128358 0 .9355072.38604019.9932723.88337887l.0067277.11662113c0 .55228475-.4477153 1-1 1h-16c-.55228475 0-1-.44771525-1-1s.44771525-1 1-1h3.999l.00099999-.00076122.00114975-1.51000044.14726461.00011211c.43074194-1.43892734 1.7646272-2.48745396 3.34199785-2.48745253zm.0018715 2-1.0150709.00189617c-.8224614 0-1.4893735.66640464-1.4899996 1.48886578l-.0012841.50923805h3.986l-.0004215-.01864676.0086456-.46356957.000259-.02778367c0-.82290428-.6670957-1.49-1.4881285-1.49z"/><mask id="b" fill="#fff"><use fill="#fff" fill-rule="evenodd" xlink:href="#a"/></mask></defs><g fill="none" fill-rule="evenodd"><use fill="#0c0c0c" fill-rule="nonzero" xlink:href="#a"/><g fill="#404040" mask="url(#b)"><path d="m0 0h24v24h-24z"/></g></g></svg>