<svg height="24" viewBox="0 0 24 24" width="24" xmlns="http://www.w3.org/2000/svg" xmlns:xlink="http://www.w3.org/1999/xlink"><defs><path id="a" d="m11.9980751 2c.5521518 0 .9997594.44760752.9997594.99975938l.0001299 1.58737013c2.5003999.45432516 4.399123 2.61921104 4.399123 5.22629496 0 2.35429843.4473573 4.17072483 1.179936 5.52401873.4147773.7662188.8040965 1.198215 1.0163906 1.3554779.7744433.5736909.3686822 1.8031087-.5951039 1.8031087l-3.0322312.0007552c-.246325 1.9723154-1.928946 3.4984027-3.9680038 3.4984027-2.03905781 0-3.72167881-1.5260873-3.96800389-3.4984027l-3.02839245-.0007552c-.9675159 0-1.37083781-1.2372663-.58919111-1.8074552.21665296-.1580422.61254893-.5906309 1.03373174-1.3568067.74322871-1.3520112 1.19699791-3.1663495 1.19699791-5.51834343 0-2.5917686 1.87648049-4.7465193 4.3551197-5.21811133l-.0000213-1.59555376c0-.55215186.4476075-.99975938.9997594-.99975938zm1.9362619 16.4970518h-3.8725238c.2223232.8618874 1.0049344 1.4986171 1.9362619 1.4986171.9313274 0 1.7139387-.6367297 1.9362619-1.4986171zm-1.9141847-11.99813457c-1.8681382 0-3.37741623 1.48758662-3.37741623 3.31450724 0 2.68458883-.53671752 4.83058543-1.44430001 6.48157343-.03786036.068872-.07583257.1360372-.11386478.2015132h9.84942212c-.0385417-.0672716-.0770197-.136328-.1153786-.2071884-.8930352-1.6497054-1.4210462-3.793614-1.4210462-6.47589823 0-1.82692062-1.509278-3.31450724-3.3774163-3.31450724z"/><mask id="b" fill="#fff"><use fill="#fff" fill-rule="evenodd" xlink:href="#a"/></mask></defs><g fill="none" fill-rule="evenodd"><use fill="#0c0c0c" fill-rule="nonzero" xlink:href="#a"/><g fill="#404040" mask="url(#b)"><path d="m0 0h24v24h-24z"/></g></g></svg>