<svg height="24" viewBox="0 0 24 24" width="24" xmlns="http://www.w3.org/2000/svg" xmlns:xlink="http://www.w3.org/1999/xlink"><defs><path id="a" d="m8.83 5c-.45839634 0-.83.37160366-.83.83v12.34c0 .4583963.37160366.83.83.83h6.34c.4583963 0 .83-.3716037.83-.83v-12.34c0-.45839634-.3716037-.83-.83-.83zm0-2h6.34c1.5629658 0 2.83 1.26703416 2.83 2.83v12.34c0 1.5629658-1.2670342 2.83-2.83 2.83h-6.34c-1.56296584 0-2.83-1.2670342-2.83-2.83v-12.34c0-1.56296584 1.26703416-2.83 2.83-2.83zm8.17 13v2h-10v-2zm0-10v2h-10v-2z"/><mask id="b" fill="#fff"><use fill="#fff" fill-rule="evenodd" xlink:href="#a"/></mask></defs><g fill="none" fill-rule="evenodd"><use fill="#0c0c0c" fill-rule="nonzero" xlink:href="#a"/><g fill="#404040" mask="url(#b)"><path d="m0 0h24v24h-24z"/></g></g></svg>