<svg height="24" viewBox="0 0 24 24" width="24" xmlns="http://www.w3.org/2000/svg" xmlns:xlink="http://www.w3.org/1999/xlink"><defs><path id="a" d="m10.6531368 6.03856339c.007958.43084009-.2608431.81832888-.66705691.96159225-.65032922.22935791-1.24923403.56866275-1.76867771.99903294-.31021843.25702259-.74432556.30264665-1.10115829.1157302l-1.8946544-.99245959-1.15524671 1.96948931 1.78644331.9357764c.38767149.2030704.5982403.6348185.51965614 1.0654977-.05958267.3265418-.08674513.6597371-.08051656.9969453.0062293.3372473.04568967.6694221.11732047.9939132.09460077.4285461-.10114491.8687211-.48265311 1.085346l-1.74745319.992225 1.22907793 1.9330208 1.85710825-1.0544884c.35009602-.1987887.78522164-.1680642 1.10393878.07795.53552705.4133673 1.14712522.7329892 1.8060112.9409118.4095081.1292273.6907608.5056857.6986945.9352071l.0370137 2.0038832 2.4728192-.0407891-.0369402-1.9999008c-.007958-.4308401.2608431-.8183289.6670569-.9615923.6503292-.2293579 1.249234-.5686627 1.7686777-.9990329.3102185-.2570226.7443256-.3026467 1.1011583-.1157302l1.8946544.9924596 1.1552467-1.9694893-1.7864433-.9357764c-.3876715-.2030704-.5982403-.6348186-.5196561-1.0654977.0595826-.3265418.0867451-.6597372.0805165-.9969453-.0062293-.3372473-.0456896-.6694222-.1173204-.9939132-.0946008-.4285461.1011449-.8687211.4826531-1.08534606l1.7474532-.99222497-1.229078-1.93302086-1.8571082 1.05448843c-.350096.19878874-.7852217.16806418-1.1039388-.07794998-.5355271-.41336729-1.1471252-.73298921-1.8060112-.94091184-.4095081-.12922725-.6907608-.50568568-.6986945-.93520706l-.035952-1.94640579c-.0003374-.01826297-.0431245-.05678359-.1320282-.05535784l-2.3418527.03866957zm-2.03882118-2.13325784c-.01866512-1.01050856.78500459-1.84482566 1.79504658-1.8634994l2.515732-.04150063c1.161062-.01915172 2.1424075.8643386 2.1637185 2.01809258l.0233306 1.26309626c.4137541.1740442.8104377.38252574 1.1855866.62277l1.4478414-.8221018c.847461-.48119854 1.9232002-.21324764 2.446213.60931583l1.4117143 2.2202605c.5422155.85276431.2907851 1.98382191-.5615854 2.52628791-.039056.0243979-.039056.0243979-.0789083.0474709l-1.2977438.7368746c.0236453.2139515.0375419.4296059.0415484.6465171.0040188.2175698-.0019532.4342126-.0177906.6494737l1.3299008.6966299c.8949645.4688011 1.2406137 1.5746868.772029 2.4700648-.0208297.0390329-.0208297.0390329-.0429061.0773739l-1.3274519 2.2630684c-.4939008.8420125-1.5615042 1.1478623-2.4260181.6950118l-1.4778097-.7741076c-.3650723.2517056-.7526805.4725616-1.1584992.6597757l.0274207 1.4845245c.0186651 1.0105086-.7850046 1.8448257-1.7950466 1.8634994l-2.8162589.0464578c-1.008655.0166378-1.84035779-.7868537-1.85899662-1.7959395l-.02752562-1.4902065c-.41375402-.1740442-.81043765-.3825257-1.18558655-.62277l-1.44784142.8221018c-.84746096.4811985-1.92320023.2132476-2.44621301-.6093158l-1.4117143-2.2202605c-.54221545-.8527643-.2907851-1.9838219.56158542-2.5262879.039056-.0243979.039056-.0243979.07890828-.047471l1.2977438-.7368745c-.02364525-.2139516-.03754184-.4296059-.04154841-.6465171-.00401874-.2175698.0019532-.4342127.01779062-.6494738l-1.32990074-.6966298c-.89496454-.4688011-1.24061373-1.57468683-.77202907-2.47006483.02082975-.0390329.02082975-.0390329.04290615-.07737386l1.32745191-2.26306843c.49390073-.84201253 1.5615042-1.14786231 2.42601807-.69501187l1.47780972.77410764c.36507225-.25170556.75268043-.47256158 1.15849915-.6597757zm3.38568438 12.09469485c-2.20811888 0-3.9981529-1.790861-3.9981529-4 0-2.20913899 1.79003402-3.99999999 3.9981529-3.99999999 2.2081189 0 3.9981529 1.790861 3.9981529 3.99999999 0 2.209139-1.790034 4-3.9981529 4zm0-2c1.1040594 0 1.9990765-.8954305 1.9990765-2s-.8950171-2-1.9990765-2-1.9990765.8954305-1.9990765 2 .8950171 2 1.9990765 2z"/><mask id="b" fill="#fff"><use fill="#fff" fill-rule="evenodd" xlink:href="#a"/></mask></defs><g fill="none" fill-rule="evenodd"><use fill="#0c0c0c" fill-rule="nonzero" xlink:href="#a"/><g fill="#404040" mask="url(#b)"><path d="m0 0h24v24h-24z"/></g></g></svg>