<svg height="24" viewBox="0 0 24 24" width="24" xmlns="http://www.w3.org/2000/svg" xmlns:xlink="http://www.w3.org/1999/xlink"><defs><path id="a" d="m4.57411765 10.9994732c-.04093405 0-.07411765.0331836-.07411765.0741177v7.8517647c0 .040934.0331836.0741176.07411765.0741176h1.92588235v-8zm0-1.99999996h3.92588235v11.99999996h-3.92588235c-1.14550355 0-2.07411765-.9286141-2.07411765-2.0741176v-7.8517647c0-1.14550356.9286141-2.07411766 2.07411765-2.07411766zm3.92588235 1.32705706v8.6366501c3.2656466 1.007773 6.0306885 1.2757179 8.2915498.8248209 1.5119775-.3015426 2.2446138-.85537 2.5379197-1.6045255.1510944-.3859222.1839435-.7552924.1647832-1.4069444-.0057425-.1953074-.0066112-.2307809-.0066112-.3127172v-5.464341c0-.3786331-.7159498-.99999996-1.3381586-.99999996h-4.6493956c-.5517678 0-.9992686-.44690874-.9999992-.99867603l-.0047437-3.58294616c-.000043-.03246537-.0212095-.06112414-.0522266-.07071295l-.9848044-.30444898c-.4751086-.14687824-.9826236.10041533-1.1597403.56509921zm9.6494829-2.32705706c1.6687655 0 3.3381586 1.4488523 3.3381586 2.99999996v5.464341c0 .0532073.000771.0846892.0057473.2539375.0265559.9031843-.0256396 1.4900955-.3015671 2.1948635-.5566505 1.4217845-1.8620052 2.4085514-4.0091035 2.8367599-2.7976149.557945-6.1290136.1800319-9.99856561-1.1080954-.40853669-.1359969-.68415259-.518232-.68415259-.94881v-9.5500566c0-.1217218.02222279-.24242094.06557533-.35616082l1.86414846-4.89078563c.55274297-1.45017815 2.13658781-2.22192807 3.61929941-1.76355276l.9848044.30444898c.8679848.2683346 1.4603122 1.07032515 1.461515 1.97884023l.0034216 2.58427014z"/><mask id="b" fill="#fff"><use fill="#fff" fill-rule="evenodd" xlink:href="#a"/></mask></defs><g fill="none" fill-rule="evenodd"><use fill="#0c0c0c" fill-rule="nonzero" transform="matrix(1 0 0 -1 0 24.999538)" xlink:href="#a"/><g fill="#404040" mask="url(#b)"><path d="m0 0h24v24h-24z"/></g></g></svg>