<svg height="24" viewBox="0 0 24 24" width="24" xmlns="http://www.w3.org/2000/svg" xmlns:xlink="http://www.w3.org/1999/xlink"><defs><path id="a" d="m16.342106 10.3684211v-5.24795326c0-.00559821-2.8016575-.01066644-8.40497251-.01520468-.00559821 0-.01095849 1.75438596-.01608086 5.26315794-.04771326 3.1709527 1.97321404 5.2631578 4.21011257 5.2631578 2.1339387 0 4.2124116-2.0971014 4.2109408-5.2631578zm-4.2105927 7.368421c-3.54059318 0-6.31484764-4.2105263-6.31484764-7.82324561v-4.79312865c0-1.17110205.94936578-2.12046784 2.12046783-2.12046784h8.38976691c1.171102 0 2.1204678.94936579 2.1204678 2.12046784v5.04772596c0 3.358122-2.8378336 7.5686483-6.3158549 7.5686483zm.0000656-2.1052632c.5813524 0 1.0526316.4712793 1.0526316 1.0526316v3.1578948h2.1052632c.5813524 0 1.0526316.4712792 1.0526316 1.0526315 0 .5813524-.4712792 1.0526316-1.0526316 1.0526316h-6.31578949c-.58135237 0-1.05263158-.4712792-1.05263158-1.0526316 0-.5813523.47127921-1.0526315 1.05263158-1.0526315h2.10526319v-3.1578948c0-.5813523.4712792-1.0526316 1.0526315-1.0526316zm6.2941802-10.52631574c1.958098 0 3.5163462 1.66441891 3.5163462 3.68421052 0 2.01979162-1.5582482 3.68421052-3.5163462 3.68421052-.5234959 0-1.0323283-.1205639-1.4963558-.3492543-.5214627-.2569966-.7358548-.8880626-.4788581-1.4095252.2569966-.5214627.8880625-.7358548 1.4095252-.4788582.1768832.0871748.3676459.1323746.5656887.1323746.763246 0 1.411083-.69197718 1.411083-1.57894742 0-.88697023-.647837-1.57894736-1.411083-1.57894736-.5813523 0-1.0526315-.47127921-1.0526315-1.05263158s.4712792-1.05263158 1.0526315-1.05263158zm-12.60956055 0c.58132797 0 1.0525874.47127921 1.0525874 1.05263158s-.47125943 1.05263158-1.0525874 1.05263158c-.76321396 0-1.41102375.69197713-1.41102375 1.57894736 0 .88697024.64780979 1.57894742 1.41102375 1.57894742.19803451 0 .38878924-.0451998.56566501-.1323746.52144078-.2569966 1.15248023-.0426045 1.40946607.4788582.25698584.5214626.04260275 1.1525286-.47883803 1.4095252-.46400802.2286904-.97281906.3492543-1.49629305.3492543-1.95801577 0-3.51619855-1.6644189-3.51619855-3.68421052 0-2.01979161 1.55818278-3.68421052 3.51619855-3.68421052z"/><mask id="b" fill="#fff"><use fill="#fff" fill-rule="evenodd" xlink:href="#a"/></mask></defs><g fill="none" fill-rule="evenodd"><use fill="#0c0c0c" fill-rule="nonzero" xlink:href="#a"/><g fill="#404040" mask="url(#b)"><path d="m0 0h24v24h-24z"/></g></g></svg>