<svg height="24" viewBox="0 0 24 24" width="24" xmlns="http://www.w3.org/2000/svg" xmlns:xlink="http://www.w3.org/1999/xlink"><defs><path id="a" d="m5.49 7c-.27061953 0-.49.23766218-.49.53083333v11.93833337c0 .2931711.21938047.5308333.49.5308333h13.02c.2706195 0 .49-.2376622.49-.5308333v-11.93833337c0-.29317115-.2193805-.53083333-.49-.53083333zm0-2h13.02c1.375189 0 2.49 1.18448666 2.49 2.645625v11.70875c0 1.4611383-1.114811 2.645625-2.49 2.645625h-13.02c-1.37518903 0-2.49-1.1844867-2.49-2.645625v-11.70875c0-1.46113834 1.11481097-2.645625 2.49-2.645625zm9.01 4.96c.769321 0 1.2505058.8323993.8665643 1.4990654l-3.3460529 5.81c-.2756262.4785902-.8870395.6431251-1.3656297.3674989-.4785903-.2756263-.6431251-.8870395-.3674989-1.3656298l2.482722-4.3109345h-3.2701048c-.55228475 0-1-.4477153-1-1s.44771525-1 1-1zm1.0400391-7.88999268c.5522847 0 1 .44771525 1 1v5c0 .55228475-.4477153 1-1 1-.5522848 0-1-.44771525-1-1v-5c0-.55228475.4477152-1 1-1zm-6.5400391-.07000732c.55228475 0 1 .44771525 1 1v5c0 .55228475-.44771525 1-1 1s-1-.44771525-1-1v-5c0-.55228475.44771525-1 1-1z"/><mask id="b" fill="#fff"><use fill="#fff" fill-rule="evenodd" xlink:href="#a"/></mask></defs><g fill="none" fill-rule="evenodd"><use fill="#0c0c0c" fill-rule="nonzero" xlink:href="#a"/><g fill="#404040" mask="url(#b)"><path d="m0 0h24v24h-24z"/></g></g></svg>