<svg height="24" viewBox="0 0 24 24" width="24" xmlns="http://www.w3.org/2000/svg" xmlns:xlink="http://www.w3.org/1999/xlink"><defs><path id="a" d="m5.3079912 5.3079912c.41065493-.41065493 1.07645813-.41065493 1.48711307 0l5.20489573 5.2040088 5.2048957-5.2040088c.3790661-.37906609.9755367-.40822502 1.3880496-.08747679l.0990635.08747679c.4106549.41065493.4106549 1.07645813 0 1.48711307l-5.2040088 5.20489573 5.2040088 5.2048957c.3790661.3790661.408225.9755367.0874768 1.3880496l-.0874768.0990635c-.4106549.4106549-1.0764581.4106549-1.4871131 0l-5.2048957-5.2040088-5.20489573 5.2040088c-.3790661.3790661-.97553663.408225-1.38804956.0874768l-.09906351-.0874768c-.41065493-.4106549-.41065493-1.0764581 0-1.4871131l5.2040088-5.2048957-5.2040088-5.20489573c-.37906609-.3790661-.40822502-.97553663-.08747679-1.38804956z"/><mask id="b" fill="#fff"><use fill="#fff" fill-rule="evenodd" xlink:href="#a"/></mask></defs><g fill="none" fill-rule="evenodd"><use fill="#0c0c0c" fill-rule="nonzero" xlink:href="#a"/><g fill="#404040" mask="url(#b)"><path d="m0 0h24v24h-24z"/></g></g></svg>