<svg height="24" viewBox="0 0 24 24" width="24" xmlns="http://www.w3.org/2000/svg" xmlns:xlink="http://www.w3.org/1999/xlink"><defs><path id="a" d="m9 16.0448359c0-1.6503773 1.1756275-3.0448359 3-3.0448359 1.8241065 0 3 1.3899188 3 3.0448359v2.9551641h1.9951185c.5618422 0 1.0048815-.4381689 1.0048815-.9714767v-6.9392761c0-.2667647-.212008-.7724538-.4101463-.9687335l-4.873726-4.82800734c-.3937178-.39002446-1.0385698-.3899925-1.4322554 0l-4.87372603 4.82800734c-.20083191.198948-.41014627.6975087-.41014627.9687335v6.9392761c0 .5356139.4412503.9714767 1.0048815.9714767h1.9951185zm-1.9951185 4.9551641c-1.66107598 0-3.0048815-1.3241141-3.0048815-2.9714767v-6.9392761c0-.8074363.42440008-1.81680701 1.00261271-2.38959564l4.87372606-4.82800736c1.17304383-1.16203988 3.07397103-1.16234465 4.24732243 0l4.8737261 4.82800736c.5769831.57157067 1.0026127 1.58867044 1.0026127 2.38959564v6.9392761c0 1.6426704-1.3432003 2.9714767-3.0048815 2.9714767h-3.9951185v-4.9551641c0-.5489599-.3034668-1.0448359-1-1.0448359s-1 .501258-1 1.0448359v4.9551641z"/><mask id="b" fill="#fff"><use fill="#fff" fill-rule="evenodd" xlink:href="#a"/></mask></defs><g fill="none" fill-rule="evenodd"><use fill="#0c0c0c" fill-rule="nonzero" xlink:href="#a"/><g fill="#404040" mask="url(#b)"><path d="m0 0h24v24h-24z"/></g></g></svg>