<svg height="24" viewBox="0 0 24 24" width="24" xmlns="http://www.w3.org/2000/svg" xmlns:xlink="http://www.w3.org/1999/xlink"><defs><path id="a" d="m8 5c-.55228475 0-1 .44771525-1 1v12c0 .5522847.44771525 1 1 1h8c.5522847 0 1-.4477153 1-1v-12c0-.55228475-.4477153-1-1-1zm0-2h8c1.6568542 0 3 1.34314575 3 3v12c0 1.6568542-1.3431458 3-3 3h-8c-1.65685425 0-3-1.3431458-3-3v-12c0-1.65685425 1.34314575-3 3-3zm6 11c.5522847 0 1 .4477153 1 1s-.4477153 1-1 1h-4c-.55228475 0-1-.4477153-1-1s.44771525-1 1-1zm0-3c.5522847 0 1 .4477153 1 1s-.4477153 1-1 1h-4c-.55228475 0-1-.4477153-1-1s.44771525-1 1-1zm0-3c.5522847 0 1 .44771525 1 1s-.4477153 1-1 1h-4c-.55228475 0-1-.44771525-1-1s.44771525-1 1-1z"/><mask id="b" fill="#fff"><use fill="#fff" fill-rule="evenodd" xlink:href="#a"/></mask></defs><g fill="none" fill-rule="evenodd"><use fill="#0c0c0c" fill-rule="nonzero" xlink:href="#a"/><g fill="#404040" mask="url(#b)"><path d="m0 0h24v24h-24z"/></g></g></svg>