<svg height="24" viewBox="0 0 24 24" width="24" xmlns="http://www.w3.org/2000/svg" xmlns:xlink="http://www.w3.org/1999/xlink"><defs><path id="a" d="m10.2081462 5c.5522847 0 1 .44771525 1 1s-.4477153 1-1 1h-2.2081462c-1.1045695 0-2 .8954305-2 2v6.9998472c0 1.1045695.8954305 2 2 2h7c1.1045695 0 2-.8954305 2-2v-2.1770876c0-.5522847.4477153-1 1-1s1 .4477153 1 1v2.1770876c0 2.209139-1.790861 4-4 4h-7c-2.209139 0-4-1.790861-4-4v-6.9998472c0-2.209139 1.790861-4 4-4zm9.7918538-2 .0193409.0001833.0396905.0015498.0257812.00181285c.0232936.00195629.0463601.00471101.069172.0082367.0071496.00117896.0148047.00245244.0224469.00381521l.0223862.00416652c.0243505.00491216.0483806.01070894.0720552.01735536.013896.00397751.0276214.0081472.0412696.01261835.0196552.0063844.0394367.01357765.058916.02136587.0177371.00709246.03504.01457509.052163.0225694.0206699.00970328.0410724.02012056.0610555.03120241.0121174.00662306.0243361.01373115.0364318.02111968.0255662.01572325.0504219.03249464.0744505.05031806.0391663.02899944.0765534.06118566.1119475.09657971l-.0923004-.08162835.0106426.0084239c.0599761.04813511.1142845.10304215.161765.16356115.0055015.00690767.0110326.01414704.0164514.02144347.0178445.02417592.0346159.04903166.0502672.07464642.0074605.01204708.0145686.02426575.0213962.03659809.0108773.01976815.0212946.0401707.0310174.06096295.0079748.01700065.0154574.0343035.0224283.05176313.0079098.01975682.015103.03953834.0216788.05959961.004818.01488507.009449.03027313.0137016.04574344.0060115.02155649.0112053.04324689.0156799.06519887.003463.01741884.0065371.03484509.0091474.05232723.0072566.04810478.0110178.09784659.0110178.14846687l-.0037021-.0862308c.0015457.01796531.0026074.03596443.003185.05397618l.0005171.03225462v5c0 .55228475-.4477153 1-1 1s-1-.44771525-1-1v-2.586l-5.2928932 5.2931068c-.360484.3604839-.927715.3882135-1.3200062.0831886l-.0942074-.0831886c-.3905243-.3905243-.3905243-1.0236893 0-1.4142136l5.2911068-5.2928932h-2.584c-.5128358 0-.9355072-.38604019-.9932723-.88337887l-.0067277-.11662113c0-.55228475.4477153-1 1-1z"/><mask id="b" fill="#fff"><use fill="#fff" fill-rule="evenodd" xlink:href="#a"/></mask></defs><g fill="none" fill-rule="evenodd"><use fill="#0c0c0c" fill-rule="nonzero" xlink:href="#a"/><g fill="#404040" mask="url(#b)"><path d="m0 0h24v24h-24z"/></g></g></svg>