<svg height="24" viewBox="0 0 24 24" width="24" xmlns="http://www.w3.org/2000/svg"><path d="m8.6135063 18.1468779s-.6135063-2.1572454-.6135063-5.6751998c0 3.1388857.6135063 5.6751998.6135063 5.6751998.35406333 1.5773196 1.5953198 2.854338 3.8560346 2.854338h2.5893425c.5188859 0 .9411166-.4332213.9411166-.953087v-2.7470172c0-.5267578-.4313875-.9521024-.9543431-.9521024h-3.0166603s-.432405-.7187536-.432405-3.8576393c0-3.13790109.432405-3.83696282.432405-3.83696282h3.0166603c.5229556 0 .9543431-.42632921.9543431-.953087v-2.74701726c0-.51986563-.4222307-.95308699-.9411166-.95308699h-2.5893425c-2.2607148 0-3.50197127 1.27701842-3.8560346 2.85433801 0 0-.6135063 2.4772385-.6135063 5.61612416 0-3.51795435.6135063-5.61612416.6135063-5.61612416" fill="none" stroke="#4c4c4c" stroke-linecap="round" stroke-linejoin="round" stroke-width="2" transform="matrix(.8660254 -.5 .5 .8660254 -4.642913 7.674845)"/></svg>