<svg height="24" viewBox="0 0 24 24" width="24" xmlns="http://www.w3.org/2000/svg" xmlns:xlink="http://www.w3.org/1999/xlink"><defs><path id="a" d="m6 15.5c1.1045695 0 2 .8954305 2 2s-.8954305 2-2 2-2-.8954305-2-2 .8954305-2 2-2zm6 0c1.1045695 0 2 .8954305 2 2s-.8954305 2-2 2-2-.8954305-2-2 .8954305-2 2-2zm6 0c1.1045695 0 2 .8954305 2 2s-.8954305 2-2 2-2-.8954305-2-2 .8954305-2 2-2zm-12-11c.55228475 0 1 .44771525 1 1v7c0 .5522847-.44771525 1-1 1s-1-.4477153-1-1v-7c0-.55228475.44771525-1 1-1zm6 0c.5522847 0 1 .44771525 1 1v7c0 .5522847-.4477153 1-1 1s-1-.4477153-1-1v-7c0-.55228475.4477153-1 1-1zm6 0c.5522847 0 1 .44771525 1 1v7c0 .5522847-.4477153 1-1 1s-1-.4477153-1-1v-7c0-.55228475.4477153-1 1-1z"/><mask id="b" fill="#fff"><use fill="#fff" fill-rule="evenodd" xlink:href="#a"/></mask></defs><g fill="none" fill-rule="evenodd"><use fill="#0c0c0c" transform="matrix(0 1 -1 0 24 0)" xlink:href="#a"/><g fill="#404040" mask="url(#b)"><path d="m0 0h24v24h-24z"/></g></g></svg>