<svg height="24" viewBox="0 0 24 24" width="24" xmlns="http://www.w3.org/2000/svg" xmlns:xlink="http://www.w3.org/1999/xlink"><defs><path id="a" d="m9.69230769 2c4.24834421 0 7.69230771 3.44396346 7.69230771 7.69230769 0 1.75449571-.5873863 3.37180011-1.5762358 4.66599001l5.8912171 5.8908236c.4005377.4005377.4005377 1.0499377 0 1.4504754s-1.0499377.4005377-1.4504754 0l-5.8908236-5.8912171c-1.2941899.9888495-2.9114943 1.5762358-4.66599001 1.5762358-4.24834423 0-7.69230769-3.4439635-7.69230769-7.69230771 0-4.24834423 3.44396346-7.69230769 7.69230769-7.69230769zm0 13.3333333c3.11545241 0 5.64102561-2.5255732 5.64102561-5.64102561 0-3.11545243-2.5255732-5.64102564-5.64102561-5.64102564-3.11545243 0-5.64102564 2.52557321-5.64102564 5.64102564 0 3.11545241 2.52557321 5.64102561 5.64102564 5.64102561zm-2.56410256-4.6153846h5.12820517c.5664459 0 1.025641-.4591951 1.025641-1.02564101 0-.56644589-.4591951-1.02564102-1.025641-1.02564102h-5.12820517c-.5664459 0-1.02564103.45919513-1.02564103 1.02564102 0 .56644591.45919513 1.02564101 1.02564103 1.02564101zm1.53846154-3.58974357v5.12820517c0 .5664459.45919513 1.025641 1.02564102 1.025641.56644591 0 1.02564101-.4591951 1.02564101-1.025641v-5.12820517c0-.5664459-.4591951-1.02564103-1.02564101-1.02564103-.56644589 0-1.02564102.45919513-1.02564102 1.02564103z"/><mask id="b" fill="#fff"><use fill="#fff" fill-rule="evenodd" xlink:href="#a"/></mask></defs><g fill="none" fill-rule="evenodd"><use fill="#0c0c0c" fill-rule="nonzero" xlink:href="#a"/><g fill="#404040" mask="url(#b)"><path d="m0 0h24v24h-24z"/></g></g></svg>