<svg height="24" viewBox="0 0 24 24" width="24" xmlns="http://www.w3.org/2000/svg" xmlns:xlink="http://www.w3.org/1999/xlink"><defs><path id="a" d="m6 18c.55228475 0 1 .4477153 1 1s-.44771525 1-1 1-1-.4477153-1-1 .44771525-1 1-1zm11.2928932-13.70710678c.3905243-.39052429 1.0236893-.39052429 1.4142136 0s.3905243 1.02368927 0 1.41421356l-6.2928932 6.29289322 6.2928932 6.2928932c.3905243.3905243.3905243 1.0236893 0 1.4142136s-1.0236893.3905243-1.4142136 0l-7-7c-.39052427-.3905243-.39052427-1.0236893 0-1.4142136zm-11.2928932-.29289322c.55228475 0 1 .44771525 1 1s-.44771525 1-1 1-1-.44771525-1-1 .44771525-1 1-1zm1 1v14h-2v-14z"/><mask id="b" fill="#fff"><use fill="#fff" fill-rule="evenodd" xlink:href="#a"/></mask></defs><g fill="none" fill-rule="evenodd"><use fill="#000" fill-rule="nonzero" transform="matrix(0 -1 1 0 0 24)" xlink:href="#a"/><g fill="#404040" mask="url(#b)"><path d="m0 0h24v24h-24z"/></g></g></svg>