<svg height="24" viewBox="0 0 24 24" width="24" xmlns="http://www.w3.org/2000/svg" xmlns:xlink="http://www.w3.org/1999/xlink"><defs><path id="a" d="m12 22c5.5228475 0 10-4.4771525 10-10s-4.4771525-10-10-10-10 4.4771525-10 10 4.4771525 10 10 10zm0-7.384c.704 0 1.264.56 1.264 1.264s-.56 1.264-1.264 1.264-1.264-.56-1.264-1.264.56-1.264 1.264-1.264zm0-7.936c.656 0 1.376.432 1.376 1.152l-.016.144-.896 5.808h-.928l-.896-5.808-.016-.144c0-.72.72-1.152 1.376-1.152z"/><mask id="b" fill="#fff"><use fill="#fff" fill-rule="evenodd" xlink:href="#a"/></mask></defs><g fill="none" fill-rule="evenodd"><use fill="#000" xlink:href="#a"/><g fill="#404040" mask="url(#b)"><path d="m0 0h24v24h-24z"/></g></g></svg>