<svg height="24" viewBox="0 0 24 24" width="24" xmlns="http://www.w3.org/2000/svg" xmlns:xlink="http://www.w3.org/1999/xlink"><defs><path id="a" d="m11.9994019 9.04064715-1.9913124-2.00233968c-1.37586787-1.3834871-3.60102926-1.38438384-4.97496159-.00284304-1.37827732 1.38590985-1.37767207 3.64569337.00282737 5.03383767l6.84160042 6.8794874c.0679145.0682906.1757975.0682708.2436923 0l6.8416005-6.8794874c1.3819471-1.3896 1.3828465-3.64617631.0028273-5.03383767-1.3721917-1.37979054-3.6005427-1.37918708-4.9749616.00284304zm0-2.83626947.7593607-.75517871c2.1673411-1.98795837 5.5320177-1.92863695 7.6250263.17596223 2.1562712 2.16821204 2.1545663 5.6851034-.0028273 7.8544441l-6.8416005 6.8794874c-.8494297.8541337-2.2296746.8549523-3.0799185 0l-6.84160043-6.8794874c-2.15654183-2.1684842-2.15676096-5.68858261-.00282737-7.8544441 2.09523146-2.1068343 5.45685329-2.16485585 7.6248125-.17617495z"/><mask id="b" fill="#fff"><use fill="#fff" fill-rule="evenodd" xlink:href="#a"/></mask></defs><g fill="none" fill-rule="evenodd"><use fill="#0c0c0c" fill-rule="nonzero" xlink:href="#a"/><g fill="#404040" mask="url(#b)"><path d="m0 0h24v24h-24z"/></g></g></svg>