<svg height="24" viewBox="0 0 24 24" width="24" xmlns="http://www.w3.org/2000/svg" xmlns:xlink="http://www.w3.org/1999/xlink"><defs><path id="a" d="m7 9c-.55228475 0-1 .44771525-1 1v8c0 .5522847.44771525 1 1 1h10c.5522847 0 1-.4477153 1-1v-8c0-.55228475-.4477153-1-1-1zm0-2h10c1.6568542 0 3 1.34314575 3 3v8c0 1.6568542-1.3431458 3-3 3h-10c-1.65685425 0-3-1.3431458-3-3v-8c0-1.65685425 1.34314575-3 3-3zm5 4c1.1045695 0 2 .8954305 2 2 0 .7398375-.4017154 1.3858493-.9989225 1.7318119l-.0010775 1.7681881c0 .5522847-.4477153 1-1 1s-1-.4477153-1-1l-.0000725-1.7676063c-.5977614-.3458198-.9999275-.9921413-.9999275-1.7323937 0-1.1045695.8954305-2 2-2zm0-8c2.209139 0 4 1.790861 4 4 0 .55228475-.4477153 1-1 1s-1-.44771525-1-1c0-1.1045695-.8954305-2-2-2s-2 .8954305-2 2c0 .55228475-.44771525 1-1 1s-1-.44771525-1-1c0-2.209139 1.790861-4 4-4z"/><mask id="b" fill="#fff"><use fill="#fff" fill-rule="evenodd" xlink:href="#a"/></mask></defs><g fill="none" fill-rule="evenodd"><use fill="#0c0c0c" fill-rule="nonzero" xlink:href="#a"/><g fill="#404040" mask="url(#b)"><path d="m0 0h24v24h-24z"/></g></g></svg>