<svg height="24" viewBox="0 0 24 24" width="24" xmlns="http://www.w3.org/2000/svg" xmlns:xlink="http://www.w3.org/1999/xlink"><defs><path id="a" d="m17.925 4.5c1.6982756 0 3.075 1.37672439 3.075 3.075v8.85c0 1.6982756-1.3767244 3.075-3.075 3.075h-11.85c-1.69827561 0-3.075-1.3767244-3.075-3.075v-8.85c0-1.69827561 1.37672439-3.075 3.075-3.075zm1.075 3.399-4.848314 4.749548c-1.1954948 1.1709509-3.1078772 1.1709509-4.30337199 0l-4.84831401-4.748548v8.525c0 .5937061.48129389 1.075 1.075 1.075h11.85c.5937061 0 1.075-.4812939 1.075-1.075zm-1.43-1.399h-11.141l4.8187846 4.7197436c.3857882.3778678.9851217.4069346 1.4037631.0872002l.1006677-.0872002z"/><mask id="b" fill="#fff"><use fill="#fff" fill-rule="evenodd" xlink:href="#a"/></mask></defs><g fill="none" fill-rule="evenodd"><use fill="#0c0c0c" fill-rule="nonzero" xlink:href="#a"/><g fill="#404040" mask="url(#b)"><path d="m0 0h24v24h-24z"/></g></g></svg>