<svg height="24" viewBox="0 0 24 24" width="24" xmlns="http://www.w3.org/2000/svg" xmlns:xlink="http://www.w3.org/1999/xlink"><defs><path id="a" d="m4.57411765 9.99947324c-.04093405 0-.07411765.03318356-.07411765.07411766v7.8517647c0 .040934.0331836.0741176.07411765.0741176h1.92588235v-7.99999996zm0-2h3.92588235v11.99999996h-3.92588235c-1.14550355 0-2.07411765-.9286141-2.07411765-2.0741176v-7.8517647c0-1.14550356.9286141-2.07411766 2.07411765-2.07411766zm3.92588235 1.32705707v8.63665009c3.2656466 1.007773 6.0306885 1.2757179 8.2915498.8248209 1.5119775-.3015426 2.2446138-.85537 2.5379197-1.6045255.1510944-.3859222.1839435-.7552924.1647832-1.4069444-.0057425-.1953074-.0066112-.2307809-.0066112-.3127172v-5.46434096c0-.37863313-.7159498-1-1.3381586-1h-4.6493956c-.5517678 0-.9992686-.44690874-.9999992-.99867603l-.0047437-3.58294616c-.000043-.03246537-.0212095-.06112414-.0522266-.07071295l-.9848044-.30444898c-.4751086-.14687824-.9826236.10041533-1.1597403.56509921zm9.6494829-2.32705707c1.6687655 0 3.3381586 1.4488523 3.3381586 3v5.46434096c0 .0532073.000771.0846892.0057473.2539375.0265559.9031843-.0256396 1.4900955-.3015671 2.1948635-.5566505 1.4217845-1.8620052 2.4085514-4.0091035 2.8367599-2.7976149.557945-6.1290136.1800319-9.99856561-1.1080954-.40853669-.1359969-.68415259-.518232-.68415259-.94881v-9.55005658c0-.12172183.02222279-.24242096.06557533-.35616084l1.86414846-4.89078563c.55274297-1.45017815 2.13658781-2.22192807 3.61929941-1.76355276l.9848044.30444898c.8679848.2683346 1.4603122 1.07032515 1.461515 1.97884023l.0034216 2.58427014z"/><mask id="b" fill="#fff"><use fill="#fff" fill-rule="evenodd" xlink:href="#a"/></mask></defs><g fill="none" fill-rule="evenodd"><use fill="#0c0c0c" fill-rule="nonzero" xlink:href="#a"/><g fill="#404040" mask="url(#b)"><path d="m0 0h24v24h-24z"/></g></g></svg>