<svg height="24" viewBox="0 0 24 24" width="24" xmlns="http://www.w3.org/2000/svg" xmlns:xlink="http://www.w3.org/1999/xlink"><mask id="a" fill="#fff"><path d="m8.63466321 11.5802714c.50795206-.2168021 1.09548139.0192216 1.31228348.5271737.21680211.5079521-.0192216 1.0954814-.52717366 1.3122835-1.24310799.5305784-2.06977303 1.7654917-2.06977303 3.1565089 0 1.8929528 1.51670818 3.4237625 3.3830118 3.4237625 1.4293705 0 2.6916015-.9059216 3.1769497-2.2436179.188367-.5191689.7619381-.7873369 1.281107-.59897s.7873369.761938.59897 1.2811069c-.7693826 2.1205398-2.7770626 3.561481-5.0570267 3.561481-2.97503756 0-5.3830118-2.4303622-5.3830118-5.4237625 0-2.197083 1.30917713-4.1527969 3.28466321-4.9959661zm3.07391539-5.57022089c.5467341-.07810486 1.053266.30179413 1.1313709.84852813l.3050505 2.14142136h2.705c.5128358 0 .9355072.38604019.9932723.88337887l.0067277.11662113c0 .5522847-.4477153 1-1 1h-2.419l.2862954 2h3.1327046c.2652165 0 .5195704.1053568.7071068.2928932l2 2c.3905243.3905243.3905243 1.0236893 0 1.4142136s-1.0236893.3905243-1.4142136 0l-1.7071068-1.7071068h-3.5857864c-.4976504 0-.9195711-.3659299-.9899495-.8585786l-1-7.00000004c-.0781049-.54673401.3017941-1.053266.8485281-1.13137085zm-.3585786-4.01005051c.8284271 0 1.5.67157288 1.5 1.5s-.6715729 1.5-1.5 1.5-1.5-.67157288-1.5-1.5.6715729-1.5 1.5-1.5z" fill="#fff" fill-rule="evenodd"/></mask><g fill="#404040" fill-rule="evenodd" mask="url(#a)"><path d="m0 0h24v24h-24z"/></g></svg>