<svg height="24" viewBox="0 0 24 24" width="24" xmlns="http://www.w3.org/2000/svg" xmlns:xlink="http://www.w3.org/1999/xlink"><defs><path id="a" d="m15 2c.5522847 0 1 .44771525 1 1v1h2c1.6568542 0 3 1.34314575 3 3v12c0 1.6568542-1.3431458 3-3 3h-12c-1.65685425 0-3-1.3431458-3-3v-12c0-1.65685425 1.34314575-3 3-3h2v-1c0-.55228475.44771525-1 1-1s1 .44771525 1 1v1h4v-1c0-.55228475.4477153-1 1-1zm4 9h-14v8c0 .5128358.38604019.9355072.88337887.9932723l.11662113.0067277h12c.5128358 0 .9355072-.3860402.9932723-.8833789l.0067277-.1166211zm-1-5h-2v1c0 .55228475-.4477153 1-1 1s-1-.44771525-1-1v-1h-4v1c0 .55228475-.44771525 1-1 1s-1-.44771525-1-1v-1h-2c-.51283584 0-.93550716.38604019-.99327227.88337887l-.00672773.11662113v2h14v-2c0-.55228475-.4477153-1-1-1z"/><mask id="b" fill="#fff"><use fill="#fff" fill-rule="evenodd" xlink:href="#a"/></mask></defs><g fill="none" fill-rule="evenodd"><use fill="#000" xlink:href="#a"/><g fill="#404040" mask="url(#b)"><path d="m0 0h24v24h-24z"/></g></g></svg>