<svg height="24" viewBox="0 0 24 24" width="24" xmlns="http://www.w3.org/2000/svg" xmlns:xlink="http://www.w3.org/1999/xlink"><defs><path id="a" d="m12 16h5.68c.7290159 0 1.32-.5909841 1.32-1.32v-7.36c0-.72901587-.5909841-1.32-1.32-1.32h-11.36c-.72901587 0-1.32.59098413-1.32 1.32v7.36c0 .7290159.59098413 1.32 1.32 1.32h1.68l2 2.6666667zm5.68-12c1.8335854 0 3.32 1.48641463 3.32 3.32v7.36c0 1.8335854-1.4864146 3.32-3.32 3.32h-4.68l-3 4-3-4h-.68c-1.83358537 0-3.32-1.4864146-3.32-3.32v-7.36c0-1.83358537 1.48641463-3.32 3.32-3.32zm-9.68 8c.55228475 0 1-.4477153 1-1s-.44771525-1-1-1-1 .4477153-1 1 .44771525 1 1 1zm4 0c.5522847 0 1-.4477153 1-1s-.4477153-1-1-1-1 .4477153-1 1 .4477153 1 1 1zm4 0c.5522847 0 1-.4477153 1-1s-.4477153-1-1-1-1 .4477153-1 1 .4477153 1 1 1z"/><mask id="b" fill="#fff"><use fill="#fff" fill-rule="evenodd" xlink:href="#a"/></mask></defs><g fill="none" fill-rule="evenodd"><use fill="#0c0c0c" fill-rule="nonzero" xlink:href="#a"/><g fill="#404040" mask="url(#b)"><path d="m0 0h24v24h-24z"/></g></g></svg>