<svg height="24" viewBox="0 0 24 24" width="24" xmlns="http://www.w3.org/2000/svg" xmlns:xlink="http://www.w3.org/1999/xlink"><defs><path id="a" d="m12 17c2.7614237 0 5-2.2385763 5-5 0-2.76142375-2.2385763-5-5-5-2.76142375 0-5 2.23857625-5 5 0 2.7614237 2.23857625 5 5 5zm0-15c.5522847 0 1 .44771525 1 1v2c0 .02380538-.0008318.04741647-.002468.07080581 3.0670492.43662942 5.4944568 2.86375056 5.9320072 5.93219169l.0704608-.0029975h2c.5522847 0 1 .4477153 1 1s-.4477153 1-1 1h-2c-.0239391 0-.0476817-.0008412-.0711999-.0024956-.4127474 2.9021905-2.6082656 5.2317657-5.4429254 5.8444744.0097718.0501171.0141253.1035608.0141253.1580212v2c0 .5522847-.4477153 1-1 1s-1-.4477153-1-1v-2c0-.0064062.0000602-.0127984.0001802-.019176-3.30031727-.2310241-5.96936707-2.752129-6.42986226-5.9848236l-.07031794.0039996h-2c-.55228475 0-1-.4477153-1-1s.44771525-1 1-1h2c.02380538 0 .04741647.0008318.07080581.002468.43715781-3.06757763 2.86408456-5.49450438 5.93219169-5.93200724l-.0029975-.07046076v-2c0-.55228475.4477153-1 1-1zm0 12c1.1045695 0 2-.8954305 2-2s-.8954305-2-2-2-2 .8954305-2 2 .8954305 2 2 2z"/><mask id="b" fill="#fff"><use fill="#fff" fill-rule="evenodd" xlink:href="#a"/></mask></defs><g fill="none" fill-rule="evenodd"><use fill="#0c0c0c" fill-rule="nonzero" xlink:href="#a"/><g fill="#404040" mask="url(#b)"><path d="m0 0h24v24h-24z"/></g></g></svg>