<svg height="24" viewBox="0 0 24 24" width="24" xmlns="http://www.w3.org/2000/svg" xmlns:xlink="http://www.w3.org/1999/xlink"><defs><path id="a" d="m12 22c5.5228475 0 10-4.4771525 10-10s-4.4771525-10-10-10-10 4.4771525-10 10 4.4771525 10 10 10zm.996-12.76c.368 0 .496.176.496.512v5.456c0 .336.128.48.384.48.192 0 .48-.112.608-.208l-.064 1.216c-.304.208-.832.4-1.408.4-.656 0-1.104-.192-1.36-.544-.208-.288-.288-.736-.288-1.248v-4.56h-.928v-1.504zm-.624-3.296c.656 0 1.168.528 1.168 1.184s-.496 1.184-1.152 1.184-1.2-.528-1.2-1.184.528-1.184 1.184-1.184z"/><mask id="b" fill="#fff"><use fill="#fff" fill-rule="evenodd" xlink:href="#a"/></mask></defs><g fill="none" fill-rule="evenodd"><use fill="#0c0c0c" xlink:href="#a"/><g fill="#404040" mask="url(#b)"><path d="m0 0h24v24h-24z"/></g></g></svg>