<svg height="24" viewBox="0 0 24 24" width="24" xmlns="http://www.w3.org/2000/svg" xmlns:xlink="http://www.w3.org/1999/xlink"><defs><path id="a" d="m13.3537207 21.4803514c-.823797.7476386-2.0976968.6859004-2.8453379-.1378964-4.32208328-4.7623536-6.5083828-8.4956352-6.5083828-11.34252868 0-4.51310588 3.5357449-7.99992632 8-7.99992632s8 3.48682044 8 7.99992632c0 2.84689338-2.1862993 6.58017478-6.5083822 11.34252798-.0437124.0481652-.089732.0941848-.1378971.1378971zm4.6462793-11.48042508c0-3.40225041-2.6341246-5.99992632-6-5.99992632-3.36587545 0-6 2.59767591-6 5.99992632 0 2.19983348 1.97962706 5.58020528 5.9893957 9.99843018 4.0309774-4.4182253 6.0106043-7.7985968 6.0106043-9.99843018zm-6 3.00007368c-1.6568542 0-3-1.3431458-3-3 0-1.65685425 1.3431458-3 3-3s3 1.34314575 3 3c0 1.6568542-1.3431458 3-3 3zm0-2c.5522847 0 1-.4477153 1-1 0-.55228475-.4477153-1-1-1s-1 .44771525-1 1c0 .5522847.4477153 1 1 1z"/><mask id="b" fill="#fff"><use fill="#fff" fill-rule="evenodd" xlink:href="#a"/></mask></defs><g fill="none" fill-rule="evenodd"><use fill="#000" fill-rule="nonzero" xlink:href="#a"/><g fill="#404040" mask="url(#b)"><path d="m0 0h24v24h-24z"/></g></g></svg>