<svg height="24" viewBox="0 0 24 24" width="24" xmlns="http://www.w3.org/2000/svg" xmlns:xlink="http://www.w3.org/1999/xlink"><defs><path id="a" d="m18.9333333 16c.5891038 0 1.0666667.4477153 1.0666667 1s-.4775629 1-1.0666667 1h-13.86666663c-.58910374 0-1.06666667-.4477153-1.06666667-1s.47756293-1 1.06666667-1zm0-5c.5891038 0 1.0666667.4477153 1.0666667 1s-.4775629 1-1.0666667 1h-13.86666663c-.58910374 0-1.06666667-.4477153-1.06666667-1s.47756293-1 1.06666667-1zm0-5c.5891038 0 1.0666667.44771525 1.0666667 1s-.4775629 1-1.0666667 1h-13.86666663c-.58910374 0-1.06666667-.44771525-1.06666667-1s.47756293-1 1.06666667-1z"/><mask id="b" fill="#fff"><use fill="#fff" fill-rule="evenodd" xlink:href="#a"/></mask></defs><g fill="none" fill-rule="evenodd"><use fill="#0c0c0c" fill-rule="nonzero" xlink:href="#a"/><g fill="#404040" mask="url(#b)"><path d="m0 0h24v24h-24z"/></g></g></svg>