<svg height="24" viewBox="0 0 24 24" width="24" xmlns="http://www.w3.org/2000/svg" xmlns:xlink="http://www.w3.org/1999/xlink"><defs><path id="a" d="m12 4c-.8284271 0-1.5.67157288-1.5 1.5v5c0 .8284271.6715729 1.5 1.5 1.5s1.5-.6715729 1.5-1.5v-5c0-.82842712-.6715729-1.5-1.5-1.5zm6 6.5c.5522847 0 1 .4477153 1 1 0 3.0332818-2.5865237 5.4821553-5.9093228 5.9275722l-.0006772 2.0724278h1.41c.5128358 0 .9355072.3860402.9932723.8833789l.0067277.1166211c0 .5522847-.4477153 1-1 1h-5c-.55228475 0-1-.4477153-1-1s.44771525-1 1-1h1.59l.0003662-2.0502299c-3.32881625-.37024-5.96320509-2.7454235-6.08589735-5.7317959l-.00446885-.2179742c0-.5522847.44771525-1 1-1s1 .4477153 1 1c0 2.1647016 2.20235808 4 5 4 2.7976419 0 5-1.8352984 5-4 0-.5522847.4477153-1 1-1zm-6-8.5c1.9329966 0 3.5 1.56700338 3.5 3.5v5c0 1.9329966-1.5670034 3.5-3.5 3.5s-3.5-1.5670034-3.5-3.5v-5c0-1.93299662 1.5670034-3.5 3.5-3.5z"/><mask id="b" fill="#fff"><use fill="#fff" fill-rule="evenodd" xlink:href="#a"/></mask></defs><g fill="none" fill-rule="evenodd"><use fill="#0c0c0c" fill-rule="nonzero" xlink:href="#a"/><g fill="#404040" mask="url(#b)"><path d="m0 0h24v24h-24z"/></g></g></svg>