<svg height="24" viewBox="0 0 24 24" width="24" xmlns="http://www.w3.org/2000/svg"
     xmlns:xlink="http://www.w3.org/1999/xlink">
    <defs>
        <path id="a"
              d="m19 19c.5522847 0 1 .4477153 1 1s-.4477153 1-1 1h-14c-.55228475 0-1-.4477153-1-1s.44771525-1 1-1zm-7-16c.5522847 0 1 .44771525 1 1v9.585l3.2928932-3.2921068c.360484-.36048394.927715-.38821348 1.3200062-.0831886l.0942074.0831886c.3905243.3905243.3905243 1.0236893 0 1.4142136l-5 5c-.3905243.3905243-1.0236893.3905243-1.4142136 0l-4.99999998-5c-.39052429-.3905243-.39052429-1.0236893 0-1.4142136.39052429-.39052427 1.02368927-.39052427 1.41421356 0l3.29289322 3.2921068v-9.585c0-.51283584.3860402-.93550716.8833789-.99327227z"/>
        <mask id="b" fill="#fff">
            <use fill="#fff" fill-rule="evenodd" xlink:href="#a"/>
        </mask>
    </defs>
    <g fill="none" fill-rule="evenodd">
        <use fill="#0c0c0c" fill-rule="nonzero" transform="matrix(1 0 0 -1 0 24)" xlink:href="#a"/>
        <g fill="#404040" mask="url(#b)">
            <path d="m0 0h24v24h-24z"/>
        </g>
    </g>
</svg>
