<svg height="24" viewBox="0 0 24 24" width="24" xmlns="http://www.w3.org/2000/svg" xmlns:xlink="http://www.w3.org/1999/xlink"><defs><path id="a" d="m7 16c.55228475 0 1 .4477153 1 1v2c0 .5522847-.44771525 1-1 1h-2c-.55228475 0-1-.4477153-1-1v-2c0-.5522847.44771525-1 1-1zm6 0c.5522847 0 1 .4477153 1 1v2c0 .5522847-.4477153 1-1 1h-2c-.5522847 0-1-.4477153-1-1v-2c0-.5522847.4477153-1 1-1zm6 0c.5522847 0 1 .4477153 1 1v2c0 .5522847-.4477153 1-1 1h-2c-.5522847 0-1-.4477153-1-1v-2c0-.5522847.4477153-1 1-1zm-12-6c.55228475 0 1 .4477153 1 1v2c0 .5522847-.44771525 1-1 1h-2c-.55228475 0-1-.4477153-1-1v-2c0-.5522847.44771525-1 1-1zm6 0c.5522847 0 1 .4477153 1 1v2c0 .5522847-.4477153 1-1 1h-2c-.5522847 0-1-.4477153-1-1v-2c0-.5522847.4477153-1 1-1zm6 0c.5522847 0 1 .4477153 1 1v2c0 .5522847-.4477153 1-1 1h-2c-.5522847 0-1-.4477153-1-1v-2c0-.5522847.4477153-1 1-1zm-12-6c.55228475 0 1 .44771525 1 1v2c0 .55228475-.44771525 1-1 1h-2c-.55228475 0-1-.44771525-1-1v-2c0-.55228475.44771525-1 1-1zm6 0c.5522847 0 1 .44771525 1 1v2c0 .55228475-.4477153 1-1 1h-2c-.5522847 0-1-.44771525-1-1v-2c0-.55228475.4477153-1 1-1zm6 0c.5522847 0 1 .44771525 1 1v2c0 .55228475-.4477153 1-1 1h-2c-.5522847 0-1-.44771525-1-1v-2c0-.55228475.4477153-1 1-1z"/><mask id="b" fill="#fff"><use fill="#fff" fill-rule="evenodd" xlink:href="#a"/></mask></defs><g fill="none" fill-rule="evenodd"><use fill="#0c0c0c" xlink:href="#a"/><g fill="#404040" mask="url(#b)"><path d="m0 0h24v24h-24z"/></g></g></svg>